<svg xmlns="http://www.w3.org/2000/svg" width="78" height="59" viewBox="0 0 78 59">
  <metadata><?xpacket begin="﻿" id="W5M0MpCehiHzreSzNTczkc9d"?>
<x:xmpmeta xmlns:x="adobe:ns:meta/" x:xmptk="Adobe XMP Core 5.6-c138 79.159824, 2016/09/14-01:09:01        ">
   <rdf:RDF xmlns:rdf="http://www.w3.org/1999/02/22-rdf-syntax-ns#">
      <rdf:Description rdf:about=""/>
   </rdf:RDF>
</x:xmpmeta>





















<?xpacket end="w"?></metadata>
<defs>
    <style>
      .cls-1 {
        fill: #ffbe6a;
        fill-rule: evenodd;
      }
    </style>
  </defs>
  <path id="网点介绍" class="cls-1" d="M152.722,496a29.5,29.5,0,1,0,29.721,29.5A29.645,29.645,0,0,0,152.722,496h0Zm0,56.684A27.185,27.185,0,1,1,180.109,525.5a27.317,27.317,0,0,1-27.387,27.183h0Zm-6.19-33.322c1.095-.892,2.664-2.428,3.287-3.046q1.633-1.637,3.133-3.4a30.548,30.548,0,0,0,2.434,2.616l1.5,1.491c0.741,0.748,1.58,1.595,2.245,2.194a50.953,50.953,0,0,0,7.28,5.194A1.172,1.172,0,0,0,168,524a1.155,1.155,0,0,0-.418-1.585A49.2,49.2,0,0,1,160.7,517.5c-0.615-.554-1.43-1.376-2.149-2.1l-1.517-1.511a30.466,30.466,0,0,1-2.572-2.794l0.024-.03a1.154,1.154,0,0,0,.18-1.16,1.171,1.171,0,0,0-2.021-.263,62.912,62.912,0,0,1-4.471,5.034c-1.247,1.238-2.412,2.32-3.118,2.893-2.68,2.184-7.786,6.03-7.838,6.069a1.153,1.153,0,0,0-.224,1.623,1.173,1.173,0,0,0,1.636.223c0.052-.042,5.193-3.915,7.907-6.126h0Zm20.612,15.187h-11.67V527.6h7a1.168,1.168,0,0,0,1.011-.579,1.152,1.152,0,0,0,0-1.158,1.168,1.168,0,0,0-1.011-.579h-7V520.65a1.155,1.155,0,0,0-.583-1,1.174,1.174,0,0,0-1.167,0,1.153,1.153,0,0,0-.583,1v13.9h-4.668V527.6a1.155,1.155,0,0,0-.584-1,1.174,1.174,0,0,0-1.167,0,1.156,1.156,0,0,0-.583,1v6.95h-7a1.158,1.158,0,1,0,0,2.316h28.007a1.158,1.158,0,1,0,0-2.316h0Zm9.335-34.748h15.17a1.167,1.167,0,0,0,1.011-.579,1.148,1.148,0,0,0,0-1.158,1.167,1.167,0,0,0-1.011-.579h-15.17a1.168,1.168,0,0,0-1.011.579,1.152,1.152,0,0,0,0,1.158,1.168,1.168,0,0,0,1.011.579h0Zm23.339,23.165h-11.67a1.168,1.168,0,0,0-1.01.579,1.15,1.15,0,0,0,0,1.159,1.168,1.168,0,0,0,1.01.579h11.67a1.17,1.17,0,0,0,1.011-.579,1.154,1.154,0,0,0,0-1.159,1.17,1.17,0,0,0-1.011-.579h0Zm-16.337-11.582a1.163,1.163,0,0,0,1.167,1.158h14a1.17,1.17,0,0,0,1.011-.579,1.152,1.152,0,0,0,0-1.158,1.166,1.166,0,0,0-1.011-.579h-14a1.162,1.162,0,0,0-1.167,1.158h0Zm8.168,38.222h-15.17a1.17,1.17,0,0,0-1.011.579,1.152,1.152,0,0,0,0,1.158,1.169,1.169,0,0,0,1.011.58h15.17a1.168,1.168,0,0,0,1.011-.58,1.148,1.148,0,0,0,0-1.158,1.169,1.169,0,0,0-1.011-.579h0Zm7-13.9h-14a1.169,1.169,0,0,0-1.011.579,1.15,1.15,0,0,0,0,1.159,1.169,1.169,0,0,0,1.011.579h14a1.17,1.17,0,0,0,1.011-.579,1.154,1.154,0,0,0,0-1.159,1.17,1.17,0,0,0-1.011-.579h0Z" transform="translate(-123 -496)"/>
</svg>
