<svg xmlns="http://www.w3.org/2000/svg" width="53.969" height="58.969" viewBox="0 0 53.969 58.969">
  <metadata><?xpacket begin="﻿" id="W5M0MpCehiHzreSzNTczkc9d"?>
<x:xmpmeta xmlns:x="adobe:ns:meta/" x:xmptk="Adobe XMP Core 5.6-c138 79.159824, 2016/09/14-01:09:01        ">
   <rdf:RDF xmlns:rdf="http://www.w3.org/1999/02/22-rdf-syntax-ns#">
      <rdf:Description rdf:about=""/>
   </rdf:RDF>
</x:xmpmeta>
                                                                                                    
                                                                                                    
                                                                                                    
                                                                                                    
                                                                                                    
                                                                                                    
                                                                                                    
                                                                                                    
                                                                                                    
                                                                                                    
                                                                                                    
                                                                                                    
                                                                                                    
                                                                                                    
                                                                                                    
                                                                                                    
                                                                                                    
                                                                                                    
                                                                                                    
                                                                                                    
                           
<?xpacket end="w"?></metadata>
<defs>
    <style>
      .cls-1 {
        fill: #ffbe6a;
        fill-rule: evenodd;
      }
    </style>
  </defs>
  <path id="互动娱乐" class="cls-1" d="M826.888,525.795a2.516,2.516,0,0,0-1.5-4.616l-12.055-1.755a6.844,6.844,0,0,1-4.522-3.29l-5.391-10.943a2.509,2.509,0,0,0-4.844,0l-5.391,10.943a6.841,6.841,0,0,1-4.521,3.29l-12.054,1.754a2.516,2.516,0,0,0-1.5,4.616l8.725,8.518a6.851,6.851,0,0,1,1.726,5.324l-2.06,12.027a3.036,3.036,0,0,0,.506,2.585c0.732,0.869,2.043.991,3.414,0.268l10.783-5.679a7.172,7.172,0,0,1,5.588,0l10.783,5.679a3.74,3.74,0,0,0,1.728.482,2.152,2.152,0,0,0,1.684-.75,3.041,3.041,0,0,0,.507-2.585l-2.06-12.027a6.852,6.852,0,0,1,1.727-5.323l8.725-8.519h0Zm-12.24,14.149,2.059,12.028a1.481,1.481,0,0,1-.1,1.1,0.343,0.343,0,0,1-.3.1,2.052,2.052,0,0,1-.883-0.273l-10.783-5.679a8.657,8.657,0,0,0-7.278,0l-10.783,5.679a2.047,2.047,0,0,1-.884.273,0.34,0.34,0,0,1-.3-0.1,1.477,1.477,0,0,1-.1-1.1l2.059-12.028a8.654,8.654,0,0,0-2.248-6.935l-8.725-8.517a0.8,0.8,0,1,1,.491-1.512l12.056-1.755a8.631,8.631,0,0,0,5.888-4.286L800.207,506a0.8,0.8,0,1,1,1.588,0l5.391,10.942a8.636,8.636,0,0,0,5.889,4.286l12.055,1.755a0.8,0.8,0,1,1,.49,1.511l-8.723,8.518a8.649,8.649,0,0,0-2.249,6.935h0Zm-0.68-36.618,2.273,0.732a1.566,1.566,0,0,1,.851.852l0.731,2.276a0.9,0.9,0,0,0,.826.713,0.947,0.947,0,0,0,.777-0.469l1.328-1.9a1.456,1.456,0,0,1,1.046-.529l2.4,0.058a0.907,0.907,0,0,0,.861-0.453,0.927,0.927,0,0,0-.165-0.98l-1.445-1.928a1.519,1.519,0,0,1-.194-1.177l0.726-2.216a0.98,0.98,0,0,0-.085-0.9,0.91,0.91,0,0,0-1.068-.255l-2.213.728a1.581,1.581,0,0,1-1.174-.195l-1.926-1.449a0.87,0.87,0,0,0-1.177-.018,1,1,0,0,0-.253.756l0.059,2.365a1.46,1.46,0,0,1-.528,1.048l-1.894,1.33a0.856,0.856,0,0,0,.244,1.607h0Zm2.172-2.192a2.338,2.338,0,0,0,.915-1.815L817,496.984l1.9,1.43a2.374,2.374,0,0,0,1.387.423,1.986,1.986,0,0,0,.619-0.092l2.213-.728,0.009,0,0,0.01-0.727,2.216a2.4,2.4,0,0,0,.33,2.007l1.427,1.9-2.367-.058a2.358,2.358,0,0,0-1.775.916l-1.324,1.892-0.73-2.272a2.428,2.428,0,0,0-1.436-1.439l-2.268-.731,1.888-1.326h0Zm-37.631,8.033a1.5,1.5,0,0,1,.147,1.179l-0.395,1.052a0.949,0.949,0,0,0,.056.91,0.9,0.9,0,0,0,1.052.273l1.073-.326a1.568,1.568,0,0,1,1.164.224l0.878,0.7a1.07,1.07,0,0,0,.659.26,0.848,0.848,0,0,0,.807-0.95l0.021-1.122a1.506,1.506,0,0,1,.572-1.041l0.936-.619a0.853,0.853,0,0,0-.2-1.61l-1.06-.37a1.5,1.5,0,0,1-.811-0.87l-0.3-1.091a0.864,0.864,0,0,0-1.59-.32l-0.677.869a1.478,1.478,0,0,1-1.073.45h0l-1.191,0a0.889,0.889,0,0,0-.712,1.478l0.644,0.92h0Zm1.291-1.38a2.419,2.419,0,0,0,1.767-.866l0.67-.887,0.294,1.073a2.374,2.374,0,0,0,1.389,1.483l1.049,0.365-0.928.612a2.382,2.382,0,0,0-.98,1.782l-0.021,1.112-0.869-.695a2.4,2.4,0,0,0-1.432-.461,1.957,1.957,0,0,0-.562.078l-1.062.322,0.391-1.041a2.38,2.38,0,0,0-.252-2.02l-0.635-.912,1.181,0.055h0Z" transform="translate(-774 -496.031)"/>
</svg>
