<svg xmlns="http://www.w3.org/2000/svg" width="22" height="22" viewBox="0 0 22 22">
  <metadata><?xpacket begin="﻿" id="W5M0MpCehiHzreSzNTczkc9d"?>
<x:xmpmeta xmlns:x="adobe:ns:meta/" x:xmptk="Adobe XMP Core 5.6-c138 79.159824, 2016/09/14-01:09:01        ">
   <rdf:RDF xmlns:rdf="http://www.w3.org/1999/02/22-rdf-syntax-ns#">
      <rdf:Description rdf:about=""/>
   </rdf:RDF>
</x:xmpmeta>
                                                                                                    
                                                                                                    
                                                                                                    
                                                                                                    
                                                                                                    
                                                                                                    
                                                                                                    
                                                                                                    
                                                                                                    
                                                                                                    
                                                                                                    
                                                                                                    
                                                                                                    
                                                                                                    
                                                                                                    
                                                                                                    
                                                                                                    
                                                                                                    
                                                                                                    
                                                                                                    
                           
<?xpacket end="w"?></metadata>
<defs>
    <style>
      .cls-1 {
        fill: #5f6683;
        fill-rule: evenodd;
      }
    </style>
  </defs>
  <path id="更多" class="cls-1" d="M399.615,585h-5.077A2.539,2.539,0,0,1,392,582.462v-5.077a2.539,2.539,0,0,1,2.538-2.539h5.077a2.539,2.539,0,0,1,2.539,2.539v5.077A2.539,2.539,0,0,1,399.615,585h0Zm-5.077-8.462a0.847,0.847,0,0,0-.846.847v5.077a0.846,0.846,0,0,0,.846.846h5.077a0.847,0.847,0,0,0,.847-0.846v-5.077a0.847,0.847,0,0,0-.847-0.847h-5.077ZM410.192,585h-3.807a2.539,2.539,0,0,1-2.539-2.538v-5.077a2.539,2.539,0,0,1,2.539-2.539h5.077A2.539,2.539,0,0,1,414,577.385v3.807a0.846,0.846,0,0,1-1.692,0v-3.807a0.847,0.847,0,0,0-.846-0.847h-5.077a0.847,0.847,0,0,0-.847.847v5.077a0.847,0.847,0,0,0,.847.846h3.807a0.846,0.846,0,0,1,0,1.692h0Zm-10.577-11.846h-5.077A2.539,2.539,0,0,1,392,570.615v-5.077A2.539,2.539,0,0,1,394.538,563h5.077a2.539,2.539,0,0,1,2.539,2.538v5.077a2.539,2.539,0,0,1-2.539,2.539h0Zm-5.077-8.462a0.846,0.846,0,0,0-.846.846v5.077a0.847,0.847,0,0,0,.846.847h5.077a0.847,0.847,0,0,0,.847-0.847v-5.077a0.847,0.847,0,0,0-.847-0.846h-5.077Zm16.924,8.462h-5.077a2.539,2.539,0,0,1-2.539-2.539v-5.077A2.539,2.539,0,0,1,406.385,563h5.077A2.539,2.539,0,0,1,414,565.538v5.077a2.539,2.539,0,0,1-2.538,2.539h0Zm-5.077-8.462a0.847,0.847,0,0,0-.847.846v5.077a0.847,0.847,0,0,0,.847.847h5.077a0.847,0.847,0,0,0,.846-0.847v-5.077a0.846,0.846,0,0,0-.846-0.846h-5.077Z" transform="translate(-392 -563)"/>
</svg>
