<svg xmlns="http://www.w3.org/2000/svg" width="60" height="59" viewBox="0 0 60 59">
  <metadata><?xpacket begin="﻿" id="W5M0MpCehiHzreSzNTczkc9d"?>
<x:xmpmeta xmlns:x="adobe:ns:meta/" x:xmptk="Adobe XMP Core 5.6-c138 79.159824, 2016/09/14-01:09:01        ">
   <rdf:RDF xmlns:rdf="http://www.w3.org/1999/02/22-rdf-syntax-ns#">
      <rdf:Description rdf:about=""/>
   </rdf:RDF>
</x:xmpmeta>
                                                                                                    
                                                                                                    
                                                                                                    
                                                                                                    
                                                                                                    
                                                                                                    
                                                                                                    
                                                                                                    
                                                                                                    
                                                                                                    
                                                                                                    
                                                                                                    
                                                                                                    
                                                                                                    
                                                                                                    
                                                                                                    
                                                                                                    
                                                                                                    
                                                                                                    
                                                                                                    
                           
<?xpacket end="w"?></metadata>
<defs>
    <style>
      .cls-1 {
        fill: #ffbe6a;
        fill-rule: evenodd;
      }
    </style>
  </defs>
  <path id="产品介绍" class="cls-1" d="M507.312,509.2c1.84-.676,2.114-1.662,2.114-2.191s-0.275-1.515-2.114-2.189l-22.343-8.2a13.455,13.455,0,0,0-8.065,0l-22.343,8.2c-1.839.675-2.114,1.662-2.114,2.189s0.274,1.516,2.114,2.191l22.342,8.2a13.465,13.465,0,0,0,8.065,0l22.344-8.2h0Zm-29.8,6.587-22.343-8.164a7.073,7.073,0,0,1-.966-0.438h0a2.266,2.266,0,0,1,.967-0.652l22.342-8.267a12.262,12.262,0,0,1,6.841,0l22.343,8.2a3.9,3.9,0,0,1,.967.507,1.857,1.857,0,0,1-.967.589l-22.343,8.208a12.3,12.3,0,0,1-6.84.015h0Zm-2.343,4.649-19.607-7.418a4.271,4.271,0,0,0-1.5-.293c-1.863,0-3.067,1.441-3.067,3.67v24.739c0,2.332,1.346,5.2,3.913,6.156l19.464,7.418a4.344,4.344,0,0,0,1.532.294,3.359,3.359,0,0,0,3.327-3.67V526.591a6.774,6.774,0,0,0-4.063-6.157h0Zm2.3,30.9a1.638,1.638,0,0,1-1.563,1.917,2.6,2.6,0,0,1-.9-0.179l-19.463-7.419a4.982,4.982,0,0,1-2.776-4.517V516.393c0-.715.168-1.917,1.3-1.917a2.5,2.5,0,0,1,.874.18l19.608,7.417a5.087,5.087,0,0,1,2.922,4.518V551.33h0Zm30.4-38.607a4.3,4.3,0,0,0-1.509.294l-19.57,7.416a6.759,6.759,0,0,0-4.032,6.157v24.74c0,2.16,1.344,3.67,3.27,3.67a4.34,4.34,0,0,0,1.529-.295l19.486-7.416a6.724,6.724,0,0,0,3.95-6.157V516.393c0-2.2-1.256-3.67-3.124-3.67h0Zm1.359,28.409a4.969,4.969,0,0,1-2.812,4.519l-19.486,7.415a2.58,2.58,0,0,1-.9.181c-0.943,0-1.506-.716-1.506-1.917V526.591a5,5,0,0,1,2.894-4.518l19.569-7.416a2.554,2.554,0,0,1,.884-0.18c1.227,0,1.359,1.34,1.359,1.917v24.738h0Z" transform="translate(-451 -496)"/>
</svg>
