<svg id="组_6" data-name="组 6" xmlns="http://www.w3.org/2000/svg" width="45" height="24" viewBox="0 0 45 24">
  <metadata><?xpacket begin="﻿" id="W5M0MpCehiHzreSzNTczkc9d"?>
<x:xmpmeta xmlns:x="adobe:ns:meta/" x:xmptk="Adobe XMP Core 5.6-c138 79.159824, 2016/09/14-01:09:01        ">
   <rdf:RDF xmlns:rdf="http://www.w3.org/1999/02/22-rdf-syntax-ns#">
      <rdf:Description rdf:about=""/>
   </rdf:RDF>
</x:xmpmeta>
                                                                                                    
                                                                                                    
                                                                                                    
                                                                                                    
                                                                                                    
                                                                                                    
                                                                                                    
                                                                                                    
                                                                                                    
                                                                                                    
                                                                                                    
                                                                                                    
                                                                                                    
                                                                                                    
                                                                                                    
                                                                                                    
                                                                                                    
                                                                                                    
                                                                                                    
                                                                                                    
                           
<?xpacket end="w"?></metadata>
<defs>
    <style>
      .cls-1 {
        fill: #fff;
        fill-rule: evenodd;
      }

      .cls-2 {
        fill: #12ebb5;
      }
    </style>
  </defs>
  <path id="形状_3" data-name="形状 3" class="cls-1" d="M888.44,28.309H891v9.2h-2.56c0,1.1,0,2.132,0,3.167a4.457,4.457,0,0,1-.567,2.383,3.783,3.783,0,0,1-3.017,1.912c-0.242.022-.486,0.025-0.73,0.025q-16.914,0-33.83.008a4.076,4.076,0,0,1-3.477-1.568,4.15,4.15,0,0,1-.811-2.624c0-5.209-.016-10.417,0-15.625A3.907,3.907,0,0,1,850.143,21q17.07-.011,34.143,0a3.84,3.84,0,0,1,4,2.963,5.829,5.829,0,0,1,.152,1.36c0.021,0.968.006,1.937,0.006,2.982h0ZM850,23a1.89,1.89,0,0,0-2,2c0,5.119,0,10.881,0,16a1.889,1.889,0,0,0,2,2c11.292,0,22.708,0,34,0a1.846,1.846,0,0,0,2-2V25a1.815,1.815,0,0,0-2-2C876.149,23,859.977,23,850,23Z" transform="translate(-846 -21)"/>
  <rect id="矩形_3_拷贝" data-name="矩形 3 拷贝" class="cls-2" x="4" y="4" width="34" height="16"/>
</svg>
